# xmcd
#
# Track frame offsets:
#	150
#	15920
#	32085
#	48630
#	62295
#	80350
#	98565
#	110800
#	129217
#	149157
#	171522
#	187540
#	208722
#	223597
#	237282
#	255252
#	271995
#
# Disc length: 4096 seconds
#
# Revision: 1
# Processed by: cddbd v1.4PL0 Copyright (c) Steve Scherf et al.
# Submitted via: EasyCDDAExtractor 5.0.6
#
DISCID=e40ffe11
DTITLE=franky perez - in stores May 13th - in CLC 3-19-2003 - poor man's son
DYEAR=2003
DGENRE=Country
TTITLE0=The Lost Angels
TTITLE1=Cecilia
TTITLE2=Something Crazy
TTITLE3=Again
TTITLE4=Beautiful Mistakes
TTITLE5=Life On The Edge
TTITLE6=Southwest Side
TTITLE7=Cry Freedom
TTITLE8=Class Act
TTITLE9=Cold Hard Rain
TTITLE10=Leave Me Alone
TTITLE11=American Classic
TTITLE12=Love And Hate
TTITLE13=Bella Maria
TTITLE14=Forever 17
TTITLE15=Angel Park
TTITLE16=Love, Soul, Rock N Roll
EXTD=
EXTT0=
EXTT1=
EXTT2=
EXTT3=
EXTT4=
EXTT5=
EXTT6=
EXTT7=
EXTT8=
EXTT9=
EXTT10=
EXTT11=
EXTT12=
EXTT13=
EXTT14=
EXTT15=
EXTT16=
PLAYORDER=
